<svg width="186" height="188" viewBox="0 0 186 188" fill="none" xmlns="http://www.w3.org/2000/svg">
<path d="M2.40023 3.17222L1.40023 3.17222L1.40023 4.17222V185.192L1.40023 186.192L2.40023 186.192L183.42 186.192L184.42 186.192L184.42 185.192V4.17223L184.42 3.17222L183.42 3.17223L2.40023 3.17222Z" fill="white" stroke="#333333" stroke-width="2"/>
<path d="M32.4187 131.105L75.637 147.397C77.5981 148.076 79.1254 148.396 80.2191 148.359C81.3505 148.283 82.2178 147.982 82.8212 147.454L83.9526 148.585C83.0098 149.377 81.8596 150.452 80.5019 151.809C79.1066 153.129 77.7301 154.468 76.3724 155.826C74.5622 157.636 72.8652 159.371 71.2813 161.03C69.6973 162.614 68.4717 163.915 67.6043 164.933L66.4729 163.802C68.0946 162.029 68.8488 160.559 68.7357 159.39C68.6603 158.183 67.3026 157.089 64.6627 156.109L35.134 144.569L34.7946 141.966L44.3546 166.574C45.3729 169.251 46.41 171.307 47.4659 172.74C48.4841 174.135 49.5212 175.021 50.5772 175.398C51.6331 175.776 52.7268 175.738 53.8582 175.285C54.9518 174.795 56.1209 174.003 57.3654 172.909L58.4968 174.041C57.3277 175.059 56.2152 176.096 55.1592 177.152C54.1033 178.133 52.9908 179.207 51.8217 180.377C51.1052 181.093 50.3132 181.923 49.4458 182.866C48.5407 183.771 47.8619 184.525 47.4093 185.128L46.278 183.997C46.9945 182.828 47.2585 181.395 47.0699 179.698C46.8437 177.963 46.2214 175.719 45.2032 172.966L29.8165 133.707C30.3068 133.293 30.7593 132.878 31.1742 132.463C31.6267 132.01 32.0416 131.558 32.4187 131.105ZM57.5917 148.019L58.723 149.151L42.997 164.877L42.4313 163.18L57.5917 148.019ZM51.0271 112.723C51.9322 111.894 53.1013 110.8 54.5343 109.442C56.0051 108.047 57.4193 106.67 58.777 105.313C60.6626 103.427 62.4351 101.617 64.0944 99.8821C65.7538 98.1474 66.9417 96.9217 67.6582 96.2052C72.938 90.9254 77.5577 87.8896 81.5175 87.0976C85.515 86.268 88.8149 87.1542 91.417 89.7564C92.5107 90.85 93.3592 92.1888 93.9626 93.7727C94.566 95.3567 94.7546 97.2046 94.5283 99.3165C94.2643 101.391 93.4346 103.767 92.0393 106.444C90.6062 109.084 88.3812 112.026 85.3642 115.269L79.1416 121.944C79.1416 121.944 78.9531 121.755 78.576 121.378C78.1988 121.001 78.0103 120.812 78.0103 120.812L83.8934 114.929C85.9299 112.893 87.0989 111.007 87.4006 109.273C87.7023 107.462 87.4195 105.746 86.5521 104.125C85.6847 102.503 84.4968 100.938 82.9883 99.4296C80.3484 96.7897 77.8217 95.2812 75.4081 94.9041C72.9945 94.4516 70.5244 95.4886 67.9976 98.0154C66.7908 99.2222 66.3194 100.335 66.5834 101.353C66.8474 102.371 67.9599 103.861 69.921 105.822L92.3221 128.223C93.6798 129.581 94.7923 130.505 95.6597 130.995C96.5648 131.447 97.4321 131.485 98.2618 131.108C99.1292 130.693 100.185 129.939 101.43 128.845L102.561 129.977C101.43 130.957 100.015 132.296 98.3184 133.993C96.6213 135.615 94.9054 137.293 93.1706 139.028C91.5867 140.611 90.0971 142.139 88.7017 143.61C87.3064 145.005 86.2127 146.174 85.4207 147.117L84.2894 145.985C85.4207 144.703 86.175 143.647 86.5521 142.818C86.9292 141.988 86.8727 141.139 86.3824 140.272C85.9299 139.367 85.0248 138.236 83.6671 136.878L61.266 114.477C59.8706 113.081 58.7204 112.158 57.8153 111.705C56.9479 111.215 56.0994 111.158 55.2697 111.535C54.44 111.912 53.403 112.685 52.1584 113.855L51.0271 112.723ZM80.1033 119.625C82.2152 117.664 83.818 116.174 84.9116 115.156C86.043 114.1 86.9481 113.27 87.6269 112.667C88.268 112.026 88.9846 111.422 89.7765 110.856C92.4918 108.669 95.1317 107.161 97.6961 106.331C100.223 105.464 102.787 105.841 105.389 107.462L111.612 111.309C112.97 112.139 114.063 112.591 114.893 112.667C115.685 112.704 116.364 112.44 116.929 111.875C117.344 111.46 117.646 110.932 117.835 110.291C118.023 109.574 118.117 108.877 118.117 108.198L119.645 108.141C119.758 109.914 119.55 111.667 119.022 113.402C118.494 115.061 117.325 116.796 115.515 118.606C113.252 120.869 111.103 122.114 109.066 122.34C107.068 122.528 105.276 122.17 103.692 121.265L95.3768 116.23C92.6992 114.458 90.5873 113.704 89.0411 113.968C87.5326 114.194 86.0053 115.08 84.4591 116.626L80.7821 120.303L80.1033 119.625ZM121.798 41.9524C123.156 43.6118 124.513 45.1957 125.871 46.7042C127.266 48.175 128.341 49.2875 129.095 50.0417C130.076 51.0222 131.019 51.9273 131.924 52.757C132.829 53.5867 133.602 54.2844 134.243 54.85L132.942 56.1511C129.661 53.8507 126.814 52.2479 124.4 51.3428C121.949 50.4 119.78 50.1548 117.895 50.6074C116.009 51.0599 114.18 52.1725 112.407 53.9449L110.654 55.6986L137.184 82.2292C138.693 83.7377 139.956 84.7371 140.975 85.2273C142.031 85.6799 143.105 85.6233 144.199 85.0576C145.293 84.492 146.669 83.4549 148.329 81.9464L149.46 83.0777C148.743 83.7189 147.782 84.6428 146.575 85.8496C145.33 87.0187 144.048 88.2632 142.728 89.5831C141.371 90.8653 140.164 92.0344 139.108 93.0904C137.976 94.2217 136.77 95.4663 135.487 96.8239C134.205 98.1061 133.017 99.3318 131.924 100.501C130.792 101.632 129.944 102.518 129.378 103.16L128.247 102.028C129.755 100.369 130.792 98.9924 131.358 97.8987C131.924 96.805 131.961 95.7491 131.471 94.7309C131.019 93.6749 130.038 92.3927 128.53 90.8842L101.999 64.3536L100.245 66.1072C98.4728 67.8797 97.3602 69.7087 96.9077 71.5943C96.4551 73.4799 96.7003 75.6484 97.6431 78.0997C98.5859 80.4756 100.189 83.3229 102.451 86.6416L101.15 87.9426C100.622 87.2638 99.9247 86.4907 99.0573 85.6233C98.2276 84.7182 97.3225 83.7754 96.342 82.7949C95.5878 82.0407 94.4564 80.9847 92.9479 79.6271C91.4771 78.2317 89.9121 76.8552 88.2527 75.4976C89.9498 73.8759 91.7788 72.1223 93.7399 70.2367C95.7386 68.3134 97.7185 66.3712 99.6796 64.4101C101.641 62.4491 103.432 60.6577 105.054 59.0361C106.713 57.3768 108.523 55.5666 110.484 53.6055C112.483 51.6068 114.463 49.5892 116.424 47.5527C118.385 45.5162 120.176 43.6495 121.798 41.9524Z" fill="#333333"/>
<path d="M117.048 8.05664C118.038 7.06669 118.969 6.39494 119.841 6.04138C120.713 5.64069 121.538 5.4757 122.316 5.54641C123.141 5.61712 123.989 5.92353 124.861 6.46565C125.757 6.98419 126.806 7.8445 128.008 9.04659L137.519 18.5572C138.509 19.5471 139.345 20.0539 140.029 20.0775C140.736 20.0775 141.502 19.665 142.327 18.84L143.069 19.5825C142.598 20.0067 141.903 20.6549 140.983 21.527C140.041 22.3755 139.133 23.2359 138.261 24.108C137.365 25.0036 136.505 25.9111 135.68 26.8303C134.855 27.7024 134.231 28.3742 133.806 28.8456L133.064 28.1031C133.771 27.396 134.089 26.7243 134.018 26.0879C133.948 25.4515 133.417 24.6383 132.427 23.6483L121.432 12.6528C120.843 12.0636 120.277 11.6157 119.735 11.3093C119.169 10.9793 118.615 10.8497 118.073 10.9204C117.507 10.9676 116.918 11.2975 116.305 11.9104C115.669 12.5468 115.256 13.3128 115.068 14.2085C114.903 15.0806 114.974 15.9998 115.28 16.9662C115.586 17.8854 116.129 18.7339 116.906 19.5118L126.735 29.3406C127.725 30.3305 128.538 30.8608 129.175 30.9315C129.835 30.9787 130.506 30.6605 131.19 29.9769L131.932 30.7194C131.485 31.1201 130.836 31.7211 129.988 32.5225C129.139 33.2768 128.279 34.09 127.407 34.9621C126.511 35.8577 125.616 36.8005 124.72 37.7905C123.801 38.7569 123.117 39.4875 122.669 39.9825L121.927 39.24C122.752 38.4151 123.153 37.6608 123.129 36.9773C123.129 36.2702 122.634 35.4217 121.644 34.4317L110.507 23.2948C109.446 22.2341 108.504 21.6213 107.679 21.4563C106.854 21.2442 106.005 21.5742 105.133 22.4463L104.391 21.7038C105.216 21.0203 105.982 20.3249 106.689 19.6178C107.679 18.6279 108.563 17.6733 109.34 16.754C110.118 15.7877 110.79 14.8566 111.356 13.961L114.538 17.143C113.925 15.3516 113.878 13.7017 114.396 12.1932C114.915 10.6847 115.799 9.30586 117.048 8.05664Z" fill="#333333"/>
</svg>
